<svg width="92" height="84" viewBox="0 0 92 84" fill="none" xmlns="http://www.w3.org/2000/svg">
<path d="M83.3333 29.1667H57.0417L61 10.125L61.125 8.79167C61.125 7.08333 60.4167 5.5 59.2917 4.375L54.875 0L27.4583 27.4583C25.9167 28.9583 25 31.0417 25 33.3333V75C25 79.5833 28.75 83.3333 33.3333 83.3333H70.8333C74.2917 83.3333 77.25 81.25 78.5 78.25L91.0833 48.875C91.4583 47.9167 91.6667 46.9167 91.6667 45.8333V37.5C91.6667 32.9167 87.9167 29.1667 83.3333 29.1667ZM83.3333 45.8333L70.8333 75H33.3333V33.3333L51.4167 15.25L46.7917 37.5H83.3333V45.8333ZM0 33.3333H16.6667V83.3333H0V33.3333Z" fill="#3077C6"/>
</svg>
