<svg width="470" height="475" viewBox="0 0 470 475" fill="none" xmlns="http://www.w3.org/2000/svg">
<path d="M259.792 16.2181C259.792 16.2181 272.352 25.3521 285.198 28.2231C287.034 28.6331 287.886 30.7571 286.803 32.2961C284.421 35.6861 279.905 40.8021 272.781 43.9341C266.658 46.6271 259.792 41.9561 259.792 35.2671V16.2181Z" fill="#A03774"/>
<path d="M235.797 0.000126785C235.797 0.000126785 241.303 -0.0268725 248.14 0.707128C260.238 2.00513 269.447 12.1691 269.447 24.3371V33.4031C269.447 36.4651 266.572 38.7281 263.607 37.9641C257.092 36.2851 246.108 34.1311 235.797 35.2811V0.000126785Z" fill="#A03774"/>
<path d="M230.81 0.012146H240.785V75.5581H230.81V0.012146Z" fill="url(#paint0_linear_20_113)"/>
<path d="M230.81 65.9691H240.785V75.5581H230.81V65.9691Z" fill="#C76266"/>
<path d="M235.797 190.646H165.292V316.1H306.302V190.646H235.797Z" fill="#819FEA"/>
<path d="M235.797 221.645C224.398 221.645 215.155 230.887 215.155 242.287V259.788H256.439V242.287C256.438 230.887 247.197 221.645 235.797 221.645Z" fill="#3D63AD"/>
<path d="M165.292 186.99V208.228H306.302V186.99H235.797H165.292Z" fill="#466DBC"/>
<path d="M252.044 68.7052V75.5482L235.797 75.5652L219.55 75.5482V68.7052C219.55 67.3292 219.003 66.0096 218.03 65.0367C217.058 64.0637 215.738 63.5172 214.362 63.5172H201.049C199.673 63.5172 198.353 64.0637 197.381 65.0367C196.408 66.0096 195.861 67.3292 195.861 68.7052V171.839H275.737V68.7052C275.737 67.3292 275.19 66.0096 274.217 65.0367C273.245 64.0637 271.925 63.5172 270.549 63.5172H257.236C256.554 63.5168 255.879 63.6507 255.25 63.9112C254.62 64.1717 254.047 64.5538 253.565 65.0356C253.083 65.5173 252.701 66.0894 252.44 66.719C252.179 67.3487 252.044 68.0236 252.044 68.7052Z" fill="#819FEA"/>
<path d="M235.797 97.1011C226.824 97.1011 219.55 104.375 219.55 113.348V121.795H252.044V113.348C252.044 104.375 244.771 97.1011 235.797 97.1011Z" fill="#3D63AD"/>
<path d="M308.693 143.558H293.304C291.913 143.558 290.58 144.111 289.597 145.094C288.613 146.077 288.061 147.411 288.061 148.801V162.923H256.684V148.801C256.684 147.411 256.132 146.077 255.148 145.094C254.165 144.111 252.832 143.558 251.441 143.558H220.153C218.762 143.558 217.429 144.111 216.446 145.094C215.462 146.077 214.91 147.411 214.91 148.801V162.923H183.532V148.801C183.532 148.113 183.397 147.431 183.133 146.795C182.87 146.159 182.484 145.581 181.997 145.094C181.51 144.607 180.932 144.221 180.296 143.957C179.66 143.694 178.978 143.558 178.29 143.558H147.51C146.822 143.558 146.14 143.694 145.504 143.957C144.868 144.221 144.29 144.607 143.803 145.094C143.316 145.581 142.93 146.159 142.667 146.795C142.403 147.431 142.268 148.113 142.268 148.801V193.465H329.325V148.801C329.325 147.411 328.773 146.077 327.789 145.094C326.806 144.111 325.473 143.558 324.082 143.558H308.693ZM235.797 319.86H93.271V474.056H378.323V319.86H235.797Z" fill="#C7DAFF"/>
<path d="M93.271 319.86V348.051H378.323V319.86H235.797H93.271ZM237.543 363.701C188.835 363.701 149.349 403.186 149.349 451.895V474.056H325.737V451.895C325.736 403.186 286.251 363.701 237.543 363.701Z" fill="#466DBC"/>
<path d="M306.481 396.921C302.683 392.152 298.402 387.788 293.708 383.898V439.692H274.984V372.04C270.858 370.105 266.587 368.495 262.21 367.225V439.693H243.93V363.958C241.819 363.808 239.694 363.703 237.543 363.703C235.393 363.703 233.268 363.807 231.155 363.958V439.693H212.433V367.351C208.054 368.645 203.783 370.28 199.659 372.241V439.693H181.379V383.899C176.685 387.79 172.404 392.154 168.605 396.922V439.693H150.21C149.643 443.736 149.356 447.814 149.35 451.896V452.467H168.605V474.058H181.379V452.467H199.659V474.058H212.433V452.467H231.156V474.058H243.93V452.467H262.21V474.058H274.984V452.467H293.708V474.058H306.481V452.467H325.736V451.896C325.73 447.814 325.442 443.736 324.876 439.693H306.481V396.921ZM354.569 292.864V307.347H330.814V292.864C330.814 291.566 330.298 290.32 329.38 289.402C328.462 288.484 327.216 287.968 325.918 287.968H288.203C286.905 287.968 285.659 288.484 284.741 289.402C283.823 290.32 283.307 291.566 283.307 292.864V307.347H259.553V292.864C259.553 291.566 259.037 290.32 258.119 289.402C257.201 288.484 255.956 287.968 254.657 287.968H216.941C215.643 287.968 214.397 288.484 213.479 289.402C212.561 290.32 212.045 291.566 212.045 292.864V307.347H188.291V292.864C188.291 291.566 187.775 290.32 186.857 289.402C185.939 288.484 184.693 287.968 183.395 287.968H145.68C144.382 287.968 143.136 288.484 142.218 289.402C141.3 290.32 140.784 291.566 140.784 292.864V307.347H117.03V292.864C117.03 291.566 116.514 290.32 115.596 289.402C114.678 288.484 113.432 287.968 112.134 287.968H93.276V329.931H378.323V287.968H359.465C358.822 287.968 358.185 288.095 357.591 288.341C356.997 288.587 356.457 288.947 356.003 289.402C355.548 289.857 355.187 290.396 354.941 290.99C354.695 291.584 354.569 292.221 354.569 292.864Z" fill="#C7DAFF"/>
<path d="M100.575 270.147L118.826 474.056H0L13.979 270.147H100.575Z" fill="#819FEA"/>
<path d="M90.023 223.044V237.181H68.767V223.044C68.767 221.654 68.2146 220.32 67.2314 219.337C66.2481 218.354 64.9145 217.801 63.524 217.801H50.255C48.8645 217.801 47.5309 218.354 46.5476 219.337C45.5644 220.32 45.012 221.654 45.012 223.044V237.181H23.754V223.044C23.754 222.356 23.6184 221.674 23.3549 221.038C23.0914 220.402 22.7052 219.824 22.2184 219.337C21.7315 218.85 21.1535 218.464 20.5174 218.2C19.8813 217.937 19.1995 217.801 18.511 217.801H5.242C4.55353 217.801 3.8718 217.937 3.23574 218.2C2.59969 218.464 2.02177 218.85 1.53499 219.337C1.04821 219.824 0.662113 220.402 0.398737 221.038C0.135361 221.674 -0.000131243 222.356 9.53919e-08 223.044V270.148H113.778V223.044C113.778 221.654 113.226 220.32 112.242 219.337C111.259 218.354 109.926 217.801 108.535 217.801H95.266C94.5774 217.801 93.8956 217.937 93.2594 218.2C92.6233 218.463 92.0452 218.85 91.5583 219.337C91.0715 219.823 90.6853 220.401 90.4218 221.038C90.1584 221.674 90.0229 222.356 90.023 223.044Z" fill="#C7DAFF"/>
<path d="M102.431 290.883L100.575 270.147H13.979L12.558 290.883H102.431Z" fill="#466DBC"/>
<path d="M83.208 474.056V441.489C83.208 428.572 72.736 418.1 59.819 418.1C46.902 418.1 36.43 428.572 36.43 441.489V474.056H83.208ZM74.342 370.678H45.297V351.264C45.297 343.244 51.799 336.743 59.819 336.743C67.84 336.743 74.341 343.245 74.341 351.264V370.678H74.342Z" fill="#3D63AD"/>
<path d="M369.091 270.147L350.84 474.056H469.666L455.687 270.147H369.091Z" fill="#819FEA"/>
<path d="M379.643 223.044V237.181H400.9V223.044C400.9 221.654 401.452 220.32 402.436 219.337C403.419 218.354 404.752 217.801 406.143 217.801H419.412C420.803 217.801 422.136 218.354 423.119 219.337C424.103 220.32 424.655 221.654 424.655 223.044V237.181H445.913V223.044C445.913 222.356 446.048 221.674 446.312 221.038C446.575 220.402 446.961 219.824 447.448 219.337C447.935 218.85 448.513 218.464 449.149 218.2C449.785 217.937 450.467 217.801 451.155 217.801H464.424C465.815 217.801 467.148 218.354 468.131 219.337C469.115 220.32 469.667 221.654 469.667 223.044V270.148H355.888V223.044C355.888 221.654 356.44 220.32 357.424 219.337C358.407 218.354 359.74 217.801 361.131 217.801H374.4C375.089 217.801 375.77 217.937 376.407 218.2C377.043 218.463 377.621 218.85 378.108 219.337C378.595 219.823 378.981 220.401 379.244 221.038C379.508 221.674 379.643 222.356 379.643 223.044Z" fill="#C7DAFF"/>
<path d="M367.235 290.883L369.091 270.147H455.687L457.108 290.883H367.235Z" fill="#466DBC"/>
<path d="M386.458 474.056V441.489C386.458 428.572 396.93 418.1 409.847 418.1C422.764 418.1 433.236 428.572 433.236 441.489V474.056H386.458ZM395.324 370.678H424.368V351.264C424.368 343.244 417.867 336.743 409.847 336.743C401.826 336.743 395.325 343.245 395.325 351.264V370.678H395.324Z" fill="#3D63AD"/>
<defs>
<linearGradient id="paint0_linear_20_113" x1="235.797" y1="9.30715" x2="235.797" y2="71.8381" gradientUnits="userSpaceOnUse">
<stop offset="0.005" stop-color="#FFC3B0"/>
<stop offset="1" stop-color="#E8897B"/>
</linearGradient>
</defs>
</svg>
