<svg width="160" height="160" viewBox="0 0 160 160" fill="none" xmlns="http://www.w3.org/2000/svg">
<path d="M43.8312 25.1259H42.9434C41.1159 25.1259 39.6344 23.6444 39.6344 21.8169C39.6344 19.9894 41.1159 18.5078 42.9434 18.5078H43.8312V25.1259ZM62.9575 25.1259H63.8453C65.6728 25.1259 67.1544 23.6444 67.1544 21.8169C67.1544 19.9894 65.6728 18.5078 63.8453 18.5078H62.9575V25.1259Z" fill="#E8897B"/>
<path d="M125.029 98.481C125.029 98.481 125.374 93.7416 129.103 90.8119C133.719 87.186 140.681 88.4572 143.792 93.4347C145.374 95.966 146.407 99.7794 145.662 105.503C145.491 106.818 145.166 108.104 144.781 109.373C144.143 111.477 143.273 115.456 145.222 116.971C146.119 117.668 146.738 118.66 146.738 119.796V119.995C146.738 120.69 146.531 121.367 146.13 121.935C145.234 123.207 143.336 125.243 140.375 125.243C140.375 125.243 132.327 125.947 129.895 117.548L125.029 98.481V98.481Z" fill="#F9C8B2"/>
<path d="M127.973 110.015L129.894 117.547C132.327 125.946 140.375 125.243 140.375 125.243C143.336 125.243 145.234 123.206 146.13 121.935C146.531 121.367 146.738 120.69 146.738 119.995V119.796C146.738 118.66 146.119 117.667 145.222 116.97C143.273 115.455 144.143 111.477 144.781 109.373C145.166 108.104 145.491 106.818 145.662 105.503C146.407 99.7791 145.373 95.9653 143.791 93.4344C142.359 91.1431 140.109 89.6487 137.649 89.0444C138.476 94.7119 138.371 105.148 127.973 110.015V110.015Z" fill="#CE957D"/>
<path d="M98.1916 121.899C98.1916 121.899 112.789 136.871 102.683 151.842C102.683 151.842 102.059 152.93 101.612 154.422C101.137 156.011 102.327 157.613 103.986 157.613H115.948C115.948 157.613 124.953 137.993 113.163 121.899H98.1916V121.899Z" fill="#56232B"/>
<path d="M103.708 150.158C103.391 150.734 103.049 151.296 102.683 151.842C102.683 151.842 102.059 152.93 101.612 154.422C101.137 156.011 102.327 157.614 103.986 157.614H115.948C115.948 157.614 117.291 154.679 118.26 150.158H103.708V150.158Z" fill="#333345"/>
<path d="M55.005 76.6944L37.6597 81.5094V123.379C37.6597 124.428 37.8078 125.474 38.1153 126.477C39.3491 130.501 42.4375 142.627 38.9863 154.026C38.4456 155.812 39.7675 157.613 41.6338 157.613H50.0625C51.3044 157.613 52.4669 156.995 53.1409 155.952C54.2575 154.224 55.8603 151.18 56.7009 146.978C56.8191 146.387 56.2116 136.088 55.5047 129.098C55.2294 126.374 57.3684 124.013 60.1066 124.013H64.8259C67.2466 124.013 69.2541 125.871 69.4384 128.284C69.9347 134.783 70.3831 147.184 67.4747 154.652C66.9184 156.08 67.9731 157.613 69.5059 157.613H78.2313C79.7284 157.613 81.1028 156.792 81.8006 155.467C82.8278 153.516 84.2391 150.504 84.9041 147.59C85.0197 147.082 85.0528 146.561 85.035 146.041L84.4063 127.303C84.3431 125.42 85.8528 123.859 87.7375 123.859H106.653C108.451 123.859 110.147 124.685 111.241 126.111C114.517 130.384 120.098 140.463 113.695 153.982C112.896 155.668 114.084 157.614 115.949 157.614H123.992C125.135 157.614 126.2 157.052 126.836 156.103C128.352 153.837 131.057 149.205 132.284 143.46C132.593 142.014 132.34 140.499 131.617 139.209L131.316 138.672C130.801 137.751 130.53 136.714 130.53 135.659V109.524C130.53 102.456 126.208 96.1062 119.633 93.5141L71.4978 74.5366L55.005 76.6944V76.6944Z" fill="url(#paint0_linear_20_18)"/>
<path d="M67.4741 154.652C66.9178 156.08 67.9725 157.614 69.505 157.614H78.2303C79.7275 157.614 81.1019 156.792 81.7997 155.468C82.8269 153.517 84.2381 150.505 84.9031 147.59C85.0187 147.083 85.0519 146.562 85.0341 146.041L84.58 132.511C82.5234 138.237 77.7919 147.855 68.555 151.006C68.2597 152.304 67.9084 153.537 67.4741 154.652V154.652ZM131.315 138.672C130.8 137.751 130.529 136.714 130.529 135.659V109.524C130.529 104.707 128.519 100.227 125.159 97.039C123.884 103.252 118.327 118.322 94.2919 123.858H106.653C108.45 123.858 110.147 124.685 111.24 126.111C114.516 130.384 120.098 140.462 113.694 153.982C112.896 155.668 114.083 157.613 115.949 157.613H123.992C125.134 157.613 126.199 157.052 126.835 156.102C128.351 153.837 131.056 149.205 132.284 143.459C132.592 142.013 132.339 140.499 131.617 139.209L131.315 138.672V138.672ZM55.9009 133.462C54.4606 138.261 50.4603 146.771 39.6347 151.504C39.4484 152.346 39.24 153.188 38.9862 154.026C38.4456 155.812 39.7675 157.613 41.6337 157.613H50.0625C51.3044 157.613 52.4669 156.995 53.1409 155.952C54.2575 154.224 55.8603 151.18 56.7009 146.978C56.7956 146.502 56.4197 139.731 55.9009 133.462V133.462ZM62.3165 117.963C58.2344 117.963 54.9122 121.329 55.0497 125.409C55.1184 127.449 55.5044 129.098 55.5044 129.098C55.2291 126.374 57.3681 124.013 60.1062 124.013H64.8256C67.2462 124.013 69.2537 125.871 69.4381 128.285C69.5603 127.076 69.6034 126.008 69.585 125.065C69.5084 121.114 66.2687 117.963 62.3165 117.963V117.963ZM109.364 89.4659L71.4972 74.5369L68.7487 74.8962C67.6178 79.9462 66.1081 84.464 64.1003 86.9862C64.1 86.9859 94.1644 98.8172 109.364 89.4659Z" fill="#773E41"/>
<path d="M90.9419 42.5775C88.0031 37.699 82.4019 32.495 71.8772 32.495H36.2069C36.2069 32.495 36.1106 32.4931 35.9472 32.495H35.5016L35.5022 32.5068C32.3156 32.6412 19.1878 34.0747 14.5056 48.4603C12.4547 54.7618 12.8366 62.1697 16.4366 67.7334C18.9975 71.6912 23.7312 75.7265 30.9813 76.8903C33.8081 77.3443 36.3234 75.0109 36.2025 72.15L36.1972 72.0284C36.1194 70.1847 34.9331 68.5962 33.2147 67.924C29.9722 66.6559 26.2178 64.12 26.4075 57.9268C26.6725 49.2809 34.1166 47.5547 36.2109 47.2387L37.6594 81.5093C37.6594 81.5093 46.7944 87.9228 54.7472 91.4218C56.5475 92.2137 58.6397 91.8712 60.1241 90.5806C63.6788 87.4906 70.1881 81.52 72.4937 77.3481L71.8772 47.1378V46.7472C71.8772 46.7472 78.3719 47.5715 81.1438 52.8612C82.1081 54.7019 82.4347 56.8356 82.1247 58.8906C81.7747 61.2122 80.5531 64.2765 76.7444 65.8525C74.8844 66.6218 73.6297 68.3875 73.6297 70.4003C73.6297 73.5309 76.5434 75.9015 79.5866 75.1662C85.3919 73.7634 92.4188 69.8003 93.9859 58.6218C94.7625 53.0793 93.8288 47.3706 90.9419 42.5775V42.5775Z" fill="url(#paint1_linear_20_18)"/>
<path d="M45.7741 60.0412H43.0409C42.777 60.0412 42.524 59.9364 42.3374 59.7498C42.1508 59.5632 42.0459 59.3101 42.0459 59.0462C42.0459 58.7824 42.1508 58.5293 42.3374 58.3427C42.524 58.1561 42.777 58.0512 43.0409 58.0512H45.7741C46.0379 58.0512 46.291 58.1561 46.4776 58.3427C46.6642 58.5293 46.7691 58.7824 46.7691 59.0462C46.7691 59.3101 46.6642 59.5632 46.4776 59.7498C46.291 59.9364 46.0379 60.0412 45.7741 60.0412V60.0412ZM65.2034 60.0412H62.4703C62.2064 60.0412 61.9533 59.9364 61.7667 59.7498C61.5801 59.5632 61.4753 59.3101 61.4753 59.0462C61.4753 58.7824 61.5801 58.5293 61.7667 58.3427C61.9533 58.1561 62.2064 58.0512 62.4703 58.0512H65.2034C65.4673 58.0512 65.7204 58.1561 65.907 58.3427C66.0936 58.5293 66.1984 58.7824 66.1984 59.0462C66.1984 59.3101 66.0936 59.5632 65.907 59.7498C65.7204 59.9364 65.4673 60.0412 65.2034 60.0412V60.0412ZM66.6653 38.4759V32.495H51.6625V47.4256H57.7153C62.6581 47.4256 66.6653 43.4184 66.6653 38.4759ZM72.4937 77.3478L71.9209 49.2731C71.9209 49.2731 70.6559 78.7509 64.1003 86.9859C67.3337 83.9375 70.9081 80.2172 72.4937 77.3478V77.3478Z" fill="#E8897B"/>
<path d="M53.3944 47.8656C47.4819 47.8656 42.6888 43.0725 42.6888 37.16V13.0922C42.6888 7.17966 47.4819 2.38654 53.3944 2.38654C59.3069 2.38654 64.1 7.17966 64.1 13.0922V37.1603C64.1 43.0728 59.3069 47.8656 53.3944 47.8656V47.8656Z" fill="url(#paint2_linear_20_18)"/>
<path d="M42.6888 35.8315V36.7934C42.6888 42.4953 46.9919 47.474 52.6819 47.8425C58.9172 48.2462 64.1003 43.3084 64.1003 37.16V35.8315C64.1003 29.919 59.3072 25.1259 53.3947 25.1259C47.4819 25.1259 42.6888 29.919 42.6888 35.8315V35.8315Z" fill="url(#paint3_linear_20_18)"/>
<path d="M49.5406 20.1372C50.4403 20.1372 51.1697 19.4079 51.1697 18.5082C51.1697 17.6084 50.4403 16.8791 49.5406 16.8791C48.6409 16.8791 47.9116 17.6084 47.9116 18.5082C47.9116 19.4079 48.6409 20.1372 49.5406 20.1372Z" fill="#333345"/>
<path d="M57.2481 20.1375C58.148 20.1375 58.8775 19.408 58.8775 18.5081C58.8775 17.6082 58.148 16.8787 57.2481 16.8787C56.3482 16.8787 55.6187 17.6082 55.6187 18.5081C55.6187 19.408 56.3482 20.1375 57.2481 20.1375Z" fill="#333345"/>
<path d="M41.6338 157.613H50.0625C51.3044 157.613 52.4669 156.996 53.1409 155.953C53.9516 154.698 55.0159 152.74 55.8619 150.158H39.9056C39.6709 151.448 39.3756 152.742 38.9869 154.026C38.4456 155.812 39.7675 157.613 41.6338 157.613V157.613ZM69.5053 157.613H78.2306C79.7278 157.613 81.1022 156.792 81.8 155.468C82.5247 154.091 83.4363 152.184 84.1463 150.158H68.7438C68.4172 151.774 68.0025 153.296 67.4744 154.652C66.9181 156.08 67.9725 157.613 69.5053 157.613V157.613ZM115.227 150.158C114.796 151.463 114.284 152.741 113.694 153.982C112.896 155.668 114.083 157.613 115.949 157.613H123.992C125.134 157.613 126.199 157.052 126.835 156.103C127.696 154.815 128.938 152.744 130.078 150.158H115.227Z" fill="#4D4D5F"/>
<defs>
<linearGradient id="paint0_linear_20_18" x1="37.6597" y1="116.075" x2="132.413" y2="116.075" gradientUnits="userSpaceOnUse">
<stop stop-color="#A06260"/>
<stop offset="1" stop-color="#82494C"/>
</linearGradient>
<linearGradient id="paint1_linear_20_18" x1="53.755" y1="35.9865" x2="53.755" y2="105.708" gradientUnits="userSpaceOnUse">
<stop offset="0.005" stop-color="#FFC3B0"/>
<stop offset="1" stop-color="#E8897B"/>
</linearGradient>
<linearGradient id="paint2_linear_20_18" x1="53.3944" y1="12.0718" x2="53.3944" y2="40.6715" gradientUnits="userSpaceOnUse">
<stop offset="0.005" stop-color="#FFC3B0"/>
<stop offset="1" stop-color="#E8897B"/>
</linearGradient>
<linearGradient id="paint3_linear_20_18" x1="42.6888" y1="36.4959" x2="64.1" y2="36.4959" gradientUnits="userSpaceOnUse">
<stop stop-color="#A06260"/>
<stop offset="1" stop-color="#82494C"/>
</linearGradient>
</defs>
</svg>
