<svg width="225" height="31" viewBox="0 0 225 31" fill="none" xmlns="http://www.w3.org/2000/svg">
<path d="M12.48 30.32C10.4267 30.32 8.69335 30.1867 7.28001 29.92C5.86668 29.6533 4.69335 29.2133 3.76001 28.6C2.82668 27.96 2.09335 27.1067 1.56001 26.04C1.05335 24.9467 0.693345 23.6 0.480012 22C0.293346 20.4 0.200012 18.48 0.200012 16.24C0.200012 14 0.293346 12.08 0.480012 10.48C0.693345 8.88 1.06668 7.54667 1.60001 6.48C2.13335 5.38667 2.86668 4.53333 3.80001 3.92C4.73335 3.28 5.90668 2.82666 7.32001 2.56C8.73335 2.29333 10.4533 2.16 12.48 2.16C13.3867 2.16 14.4 2.2 15.52 2.28C16.64 2.36 17.7467 2.46666 18.84 2.6C19.96 2.73333 21 2.89333 21.96 3.08V8.08C21.0533 7.94667 20.1467 7.85333 19.24 7.8C18.36 7.72 17.5467 7.65333 16.8 7.6C16.0533 7.54667 15.44 7.52 14.96 7.52C13.52 7.52 12.3333 7.54667 11.4 7.6C10.4667 7.65333 9.70668 7.82667 9.12001 8.12C8.53335 8.38667 8.09335 8.82667 7.80001 9.44C7.50668 10.0533 7.30668 10.92 7.20001 12.04C7.12001 13.1333 7.08001 14.5333 7.08001 16.24C7.08001 17.76 7.10668 19.04 7.16001 20.08C7.24001 21.12 7.38668 21.9733 7.60001 22.64C7.84001 23.3067 8.16001 23.8267 8.56001 24.2C8.98668 24.5467 9.53335 24.7867 10.2 24.92C10.8933 25.0533 11.7333 25.12 12.72 25.12C13.04 25.12 13.3867 25.12 13.76 25.12C14.1333 25.0933 14.4933 25.0667 14.84 25.04C15.1867 25.0133 15.48 25 15.72 25V19.04H11.8V14.04H22.08V29.44C21.12 29.6267 20.0667 29.7867 18.92 29.92C17.7733 30.0267 16.64 30.12 15.52 30.2C14.4 30.28 13.3867 30.32 12.48 30.32Z" fill="#28D223"/>
<path d="M32.1197 30.32C30.8397 30.32 29.7597 30.12 28.8797 29.72C27.9997 29.32 27.333 28.6667 26.8797 27.76C26.453 26.8533 26.2397 25.6667 26.2397 24.2C26.2397 22.6533 26.413 21.4267 26.7597 20.52C27.133 19.5867 27.7864 18.92 28.7197 18.52C29.653 18.12 30.973 17.92 32.6797 17.92C32.9197 17.92 33.253 17.9333 33.6797 17.96C34.133 17.96 34.6397 17.9733 35.1997 18C35.7597 18 36.3197 18.0133 36.8797 18.04C37.4397 18.04 37.9464 18.0533 38.3997 18.08V17.32C38.3997 16.5467 38.333 15.9467 38.1997 15.52C38.093 15.0933 37.8664 14.7867 37.5197 14.6C37.1997 14.3867 36.7064 14.2667 36.0397 14.24C35.373 14.1867 34.493 14.16 33.3997 14.16C32.7864 14.16 32.1064 14.1733 31.3597 14.2C30.6397 14.2267 29.9197 14.2667 29.1997 14.32C28.5064 14.3467 27.9197 14.3867 27.4397 14.44V9.92C28.533 9.73333 29.7597 9.58667 31.1197 9.48C32.5064 9.34667 33.9597 9.28 35.4797 9.28C37.1864 9.28 38.5997 9.38667 39.7197 9.6C40.8664 9.81333 41.7864 10.1467 42.4797 10.6C43.173 11.0267 43.6797 11.5733 43.9997 12.24C44.3464 12.9067 44.573 13.6933 44.6797 14.6C44.7864 15.5067 44.8397 16.5333 44.8397 17.68V30H38.6797L38.5197 27.6H38.1997C37.693 28.4 37.1064 29 36.4397 29.4C35.773 29.8 35.0664 30.0533 34.3197 30.16C33.573 30.2667 32.8397 30.32 32.1197 30.32ZM35.1597 25.76C35.6397 25.76 36.053 25.7333 36.3997 25.68C36.773 25.6 37.0797 25.48 37.3197 25.32C37.5864 25.1333 37.7997 24.9067 37.9597 24.64C38.093 24.3467 38.1997 23.9867 38.2797 23.56C38.3597 23.1333 38.3997 22.6267 38.3997 22.04V21.28H34.6797C34.013 21.28 33.5064 21.3333 33.1597 21.44C32.813 21.52 32.573 21.7333 32.4397 22.08C32.333 22.4 32.2797 22.9067 32.2797 23.6C32.2797 24.1867 32.3464 24.64 32.4797 24.96C32.613 25.28 32.8797 25.4933 33.2797 25.6C33.7064 25.7067 34.333 25.76 35.1597 25.76Z" fill="#28D223"/>
<path d="M49.8159 30V9.6H55.896L56.056 12.08H56.416C56.7893 11.3867 57.256 10.84 57.816 10.44C58.4026 10.0133 59.056 9.72 59.776 9.56C60.496 9.37333 61.2693 9.28 62.096 9.28C63.6959 9.28 64.9093 9.50667 65.7359 9.96C66.5626 10.3867 67.1493 11.0933 67.4959 12.08H67.8559C68.256 11.3867 68.7493 10.84 69.336 10.44C69.9226 10.0133 70.576 9.72 71.296 9.56C72.0426 9.37333 72.8293 9.28 73.656 9.28C75.3893 9.28 76.6693 9.58667 77.4959 10.2C78.3493 10.8133 78.9093 11.7067 79.1759 12.88C79.4693 14.0533 79.616 15.5067 79.616 17.24V30H73.216V19.2C73.216 18.1067 73.176 17.2533 73.096 16.64C73.0426 16 72.9359 15.5333 72.7759 15.24C72.616 14.9467 72.3626 14.7733 72.016 14.72C71.6693 14.64 71.216 14.6 70.656 14.6C70.0426 14.6 69.5493 14.68 69.1759 14.84C68.8026 14.9733 68.5226 15.2133 68.336 15.56C68.1493 15.9067 68.0293 16.3867 67.976 17C67.9493 17.6133 67.936 18.4 67.936 19.36V30H61.4959V19.2C61.4959 18.1067 61.4693 17.2533 61.416 16.64C61.3626 16 61.2426 15.5333 61.056 15.24C60.896 14.9467 60.6426 14.7733 60.2959 14.72C59.9759 14.64 59.5359 14.6 58.9759 14.6C58.3626 14.6 57.8693 14.68 57.4959 14.84C57.1226 14.9733 56.8426 15.2133 56.6559 15.56C56.4693 15.9067 56.3493 16.4 56.2959 17.04C56.2426 17.6533 56.216 18.4267 56.216 19.36V30H49.8159Z" fill="#28D223"/>
<path d="M94.1406 30.32C92.2206 30.32 90.634 30.2 89.3806 29.96C88.1273 29.72 87.1273 29.3467 86.3806 28.84C85.6606 28.3067 85.114 27.6267 84.7406 26.8C84.394 25.9733 84.1673 24.9867 84.0606 23.84C83.9806 22.6933 83.9406 21.36 83.9406 19.84C83.9406 18 84.0206 16.4133 84.1806 15.08C84.3673 13.7467 84.7673 12.6533 85.3806 11.8C85.994 10.9467 86.9406 10.32 88.2206 9.92C89.5273 9.49333 91.2873 9.28 93.5006 9.28C95.2873 9.28 96.7406 9.41333 97.8606 9.68C98.9806 9.92 99.8606 10.3067 100.501 10.84C101.167 11.3467 101.634 12.0133 101.901 12.84C102.194 13.6667 102.381 14.6667 102.461 15.84C102.541 16.9867 102.581 18.32 102.581 19.84V21.4H90.3006C90.3006 22.3067 90.3406 23.04 90.4206 23.6C90.5006 24.1333 90.714 24.5333 91.0606 24.8C91.4073 25.0667 91.9406 25.2533 92.6606 25.36C93.3806 25.44 94.3806 25.48 95.6606 25.48C96.1673 25.48 96.7673 25.4667 97.4606 25.44C98.154 25.4133 98.874 25.3733 99.6206 25.32C100.394 25.2667 101.114 25.2133 101.781 25.16V29.64C101.194 29.7733 100.474 29.8933 99.6206 30C98.794 30.1067 97.9006 30.1867 96.9406 30.24C95.9806 30.2933 95.0473 30.32 94.1406 30.32ZM96.5406 18.72V18.08C96.5406 17.12 96.4873 16.36 96.3806 15.8C96.3006 15.24 96.1406 14.8267 95.9006 14.56C95.6873 14.2667 95.3806 14.08 94.9806 14C94.5806 13.92 94.074 13.88 93.4606 13.88C92.7673 13.88 92.2073 13.9333 91.7806 14.04C91.3806 14.12 91.074 14.3067 90.8606 14.6C90.6473 14.8933 90.5006 15.32 90.4206 15.88C90.3406 16.44 90.3006 17.1733 90.3006 18.08H97.2206L96.5406 18.72Z" fill="#28D223"/>
<path d="M117.326 30.32C116.26 30.32 115.1 30.2933 113.846 30.24C112.62 30.1867 111.406 30.1067 110.206 30C109.033 29.8933 107.98 29.7867 107.046 29.68V24.52C108.033 24.6 109.02 24.68 110.006 24.76C111.02 24.84 111.98 24.8933 112.886 24.92C113.793 24.9467 114.553 24.96 115.166 24.96C116.446 24.96 117.42 24.92 118.086 24.84C118.753 24.7333 119.246 24.5867 119.566 24.4C119.78 24.2133 119.926 24.0133 120.006 23.8C120.113 23.5867 120.18 23.3333 120.206 23.04C120.233 22.7467 120.246 22.4133 120.246 22.04C120.246 21.48 120.206 21.04 120.126 20.72C120.073 20.3733 119.94 20.1067 119.726 19.92C119.54 19.7333 119.246 19.6 118.846 19.52C118.446 19.4133 117.926 19.32 117.286 19.24L111.646 18.52C110.553 18.3867 109.66 18.12 108.966 17.72C108.273 17.2933 107.726 16.7333 107.326 16.04C106.926 15.3467 106.646 14.5333 106.486 13.6C106.326 12.64 106.246 11.5733 106.246 10.4C106.246 8.58667 106.513 7.14667 107.046 6.08C107.58 4.98666 108.313 4.16 109.246 3.6C110.206 3.01333 111.313 2.62667 112.566 2.44C113.846 2.25333 115.233 2.16 116.726 2.16C117.793 2.16 118.9 2.2 120.046 2.28C121.193 2.33333 122.273 2.42666 123.286 2.56C124.3 2.66666 125.14 2.8 125.806 2.96V8C125.14 7.89333 124.353 7.81333 123.446 7.76C122.566 7.68 121.646 7.62667 120.686 7.6C119.726 7.54667 118.82 7.52 117.966 7.52C116.926 7.52 116.1 7.56 115.486 7.64C114.873 7.69333 114.393 7.81333 114.046 8C113.673 8.21333 113.433 8.49333 113.326 8.84C113.246 9.18667 113.206 9.62667 113.206 10.16C113.206 10.8267 113.26 11.3467 113.366 11.72C113.473 12.0667 113.713 12.3067 114.086 12.44C114.46 12.5733 115.033 12.6933 115.806 12.8L121.286 13.44C122.033 13.52 122.713 13.6533 123.326 13.84C123.966 14.0267 124.54 14.32 125.046 14.72C125.58 15.12 126.02 15.6933 126.366 16.44C126.553 16.7867 126.7 17.2133 126.806 17.72C126.913 18.2 127.006 18.76 127.086 19.4C127.166 20.04 127.206 20.76 127.206 21.56C127.206 23.1333 127.046 24.4667 126.726 25.56C126.406 26.6267 125.953 27.48 125.366 28.12C124.78 28.7333 124.073 29.2133 123.246 29.56C122.42 29.88 121.5 30.08 120.486 30.16C119.5 30.2667 118.446 30.32 117.326 30.32Z" fill="#28D223"/>
<path d="M133.184 30V14.48H129.464V9.6H133.184V3.68H139.664V9.6H144.104V14.48H139.664V30H133.184Z" fill="#28D223"/>
<path d="M153.633 30.32C152.273 30.32 151.18 30.1467 150.353 29.8C149.526 29.4533 148.9 28.9467 148.473 28.28C148.046 27.6133 147.766 26.7867 147.633 25.8C147.5 24.8133 147.433 23.6667 147.433 22.36V9.6H153.833V20.4C153.833 21.4933 153.86 22.36 153.913 23C153.993 23.6133 154.126 24.0667 154.313 24.36C154.5 24.6533 154.78 24.84 155.153 24.92C155.526 24.9733 156.033 25 156.673 25C157.366 25 157.913 24.9333 158.313 24.8C158.74 24.64 159.046 24.3867 159.233 24.04C159.42 23.6933 159.54 23.2133 159.593 22.6C159.673 21.96 159.713 21.1733 159.713 20.24V9.6H166.153V30H160.033L159.873 27.52H159.513C159.14 28.2133 158.66 28.7733 158.073 29.2C157.486 29.6 156.82 29.88 156.073 30.04C155.326 30.2267 154.513 30.32 153.633 30.32Z" fill="#28D223"/>
<path d="M177.066 30.32C175.893 30.32 174.879 30.16 174.026 29.84C173.173 29.52 172.479 28.9733 171.946 28.2C171.413 27.4 171.013 26.32 170.746 24.96C170.506 23.6 170.386 21.8933 170.386 19.84C170.386 17.8133 170.506 16.12 170.746 14.76C170.986 13.3733 171.373 12.2933 171.906 11.52C172.439 10.72 173.119 10.1467 173.946 9.8C174.799 9.45333 175.826 9.28 177.026 9.28C177.826 9.28 178.573 9.34667 179.266 9.48C179.986 9.61333 180.639 9.85333 181.226 10.2C181.813 10.5467 182.319 11.0667 182.746 11.76H183.066V0.279999H189.506V30H183.386L183.226 27.56H182.906C182.506 28.3333 181.986 28.92 181.346 29.32C180.733 29.6933 180.053 29.9467 179.306 30.08C178.586 30.24 177.839 30.32 177.066 30.32ZM179.946 25.04C180.773 25.04 181.386 24.9467 181.786 24.76C182.213 24.5467 182.519 24.1733 182.706 23.64C182.866 23.16 182.959 22.6133 182.986 22C183.039 21.36 183.066 20.6267 183.066 19.8C183.066 18.9733 183.039 18.2533 182.986 17.64C182.959 17.0267 182.866 16.5067 182.706 16.08C182.546 15.4933 182.253 15.0933 181.826 14.88C181.399 14.6667 180.773 14.56 179.946 14.56C179.226 14.56 178.653 14.6133 178.226 14.72C177.799 14.8267 177.479 15.0533 177.266 15.4C177.079 15.72 176.959 16.2267 176.906 16.92C176.853 17.6133 176.826 18.5733 176.826 19.8C176.826 21.0267 176.853 22 176.906 22.72C176.959 23.4133 177.079 23.9333 177.266 24.28C177.479 24.6 177.799 24.8133 178.226 24.92C178.653 25 179.226 25.04 179.946 25.04Z" fill="#28D223"/>
<path d="M194.384 5.44V0.279999H200.984V5.44H194.384ZM194.464 30V9.6H200.944V30H194.464Z" fill="#28D223"/>
<path d="M214.87 30.32C213.056 30.32 211.55 30.2133 210.35 30C209.15 29.7867 208.203 29.44 207.51 28.96C206.816 28.48 206.31 27.84 205.99 27.04C205.67 26.24 205.456 25.24 205.35 24.04C205.27 22.84 205.23 21.4133 205.23 19.76C205.23 18.1067 205.27 16.6933 205.35 15.52C205.456 14.32 205.67 13.32 205.99 12.52C206.31 11.72 206.816 11.08 207.51 10.6C208.203 10.12 209.15 9.78667 210.35 9.6C211.55 9.38667 213.056 9.28 214.87 9.28C216.71 9.28 218.23 9.38667 219.43 9.6C220.63 9.78667 221.576 10.12 222.27 10.6C222.963 11.08 223.47 11.72 223.79 12.52C224.11 13.32 224.31 14.32 224.39 15.52C224.496 16.6933 224.55 18.1067 224.55 19.76C224.55 21.4133 224.496 22.84 224.39 24.04C224.31 25.24 224.11 26.24 223.79 27.04C223.47 27.84 222.963 28.48 222.27 28.96C221.576 29.44 220.63 29.7867 219.43 30C218.23 30.2133 216.71 30.32 214.87 30.32ZM214.87 25.44C215.67 25.44 216.296 25.3867 216.75 25.28C217.203 25.1733 217.523 24.9333 217.71 24.56C217.896 24.1867 218.003 23.6133 218.03 22.84C218.083 22.0667 218.11 21.04 218.11 19.76C218.11 18.48 218.083 17.4667 218.03 16.72C218.003 15.9733 217.896 15.4133 217.71 15.04C217.523 14.6667 217.203 14.4267 216.75 14.32C216.296 14.2133 215.67 14.16 214.87 14.16C214.07 14.16 213.443 14.2133 212.99 14.32C212.563 14.4267 212.256 14.6667 212.07 15.04C211.883 15.4133 211.763 15.9733 211.71 16.72C211.683 17.4667 211.67 18.48 211.67 19.76C211.67 21.04 211.683 22.0667 211.71 22.84C211.763 23.6133 211.883 24.1867 212.07 24.56C212.256 24.9333 212.563 25.1733 212.99 25.28C213.443 25.3867 214.07 25.44 214.87 25.44Z" fill="#28D223"/>
</svg>
