<svg width="160" height="160" viewBox="0 0 160 160" fill="none" xmlns="http://www.w3.org/2000/svg">
<path d="M41.15 98.6672C41.15 98.6672 35.0669 101.448 35.2369 106.82C35.2887 108.464 36.0066 110.012 37.09 111.25C38.4097 112.758 40.7891 115.493 43.0459 118.177C45.8256 121.482 48.0456 125.231 49.5119 129.293C52.8384 138.506 63.3766 158.102 92.8412 158.106C95.0806 158.106 97.2951 157.636 99.3422 156.728C107.766 152.993 128.3 140.268 124.348 106.022C124.348 106.022 116.02 105.508 108.405 124.247C106.972 127.772 103.752 130.292 99.96 130.619C91.8562 131.318 77.62 128.897 64.5822 108.33C61.765 103.887 57.6784 100.334 52.7291 98.5491C48.9831 97.1985 44.6906 96.6035 41.15 98.6672Z" fill="#59E1FF"/>
<path d="M124.348 106.022C124.348 106.022 116.019 105.508 108.404 124.248C106.972 127.773 103.752 130.291 99.9616 130.619C93.6822 131.161 83.7191 129.823 73.4853 119.626L71.0869 120.863C71.0869 120.863 81.7281 137.218 95.7206 142.882C96.5747 143.228 97.5181 143.283 98.4166 143.076C100.488 142.6 104.452 141.363 108.308 138.36C109.809 137.191 111.97 138.587 111.561 140.446C110.87 143.585 109.743 147.559 107.929 151.608C116.946 144.709 127.25 131.175 124.348 106.022Z" fill="#30A7EA"/>
<path d="M72.78 81.7372C72.78 81.7372 61.8366 75.2913 53.8919 88.1832C53.8919 88.1832 39.1003 85.1978 34.1778 98.0775C33.7284 99.2528 34.2753 100.579 35.3897 101.163C35.7607 101.358 36.1746 101.458 36.5938 101.453C37.013 101.447 37.4243 101.338 37.7903 101.133C40.1506 99.8163 44.8975 96.4282 49.8444 100.326C49.8444 100.326 58.0906 105.911 64.6672 114.459C67.2519 117.819 69.9953 121.053 73.0775 123.963C78.6688 129.242 87.2878 136.118 96.0241 138.2C96.6913 138.358 97.3844 138.303 98.0287 138.07C101.19 136.922 110.547 132.27 115.788 116.254C116.553 113.919 117.84 111.757 119.64 110.084C120.906 108.906 122.506 107.86 124.368 107.557C125.475 107.377 126.213 106.311 125.912 105.229C125.326 103.126 123.852 100.202 120.151 99.2763C120.151 99.2763 119.731 91.631 112.595 88.7832L72.78 81.7372Z" fill="url(#paint0_linear_20_87)"/>
<path d="M115.898 115.914C116.336 114.548 116.95 113.24 117.822 112.101C119.18 110.326 121.452 108.032 124.367 107.557C125.475 107.376 126.212 106.311 125.911 105.229C125.325 103.126 123.852 100.202 120.15 99.2762C120.15 99.2762 119.73 91.6309 112.595 88.7831L106.053 87.6253L99.9128 99.5762C105.447 100.598 106.586 104.485 106.722 106.998C106.794 108.328 107.484 109.524 108.58 110.283C114.729 114.543 112.225 123.371 111.065 126.542C112.843 123.707 114.52 120.218 115.898 115.914Z" fill="#A03774"/>
<path d="M84.2381 98.6672C84.2381 98.6672 93.7697 104.975 94.2081 114.495H96.9509C96.9509 114.495 96.0191 105.429 102.695 99.8706V98.6669H84.2381V98.6672Z" fill="#A03774"/>
<path d="M64.6028 37.0444C64.6028 37.0444 57.0338 39.8556 57.0338 48.2722V63.6053C57.0338 63.6053 56.7725 67.6509 53.7713 67.9119C53.7713 67.9119 52.3516 68.1147 51.1559 67.3194C49.9425 66.5125 48.3338 67.2941 48.1947 68.7447C48.0572 70.1816 48.2009 71.9078 48.9831 73.7984C49.6797 75.4822 50.8216 76.9525 52.2191 78.1219C55.5653 80.9222 63.1959 85.1244 75.2863 79.7875V37.0444H64.6028Z" fill="#E6E6F8"/>
<path d="M112.812 67.0094H111.368V55.0912H112.812C116.103 55.0912 118.771 57.7594 118.771 61.0503C118.771 64.3412 116.103 67.0094 112.812 67.0094Z" fill="#C66760"/>
<path d="M73.9641 37.0444H112.595V85.0922H73.9641V37.0444Z" fill="url(#paint1_linear_20_87)"/>
<path d="M81.3069 42.3334H100.034C102.665 42.3334 104.797 44.4662 104.797 47.0969V85.0922H112.595V37.0444H81.3069V42.3334Z" fill="#E8897B"/>
<path d="M92.4578 51.7728C93.4245 51.7728 94.2081 50.9892 94.2081 50.0225C94.2081 49.0559 93.4245 48.2722 92.4578 48.2722C91.4911 48.2722 90.7075 49.0559 90.7075 50.0225C90.7075 50.9892 91.4911 51.7728 92.4578 51.7728Z" fill="#333345"/>
<path d="M107.56 51.7728C108.527 51.7728 109.311 50.9892 109.311 50.0225C109.311 49.0559 108.527 48.2722 107.56 48.2722C106.594 48.2722 105.81 49.0559 105.81 50.0225C105.81 50.9892 106.594 51.7728 107.56 51.7728Z" fill="#333345"/>
<path d="M68.5178 63.8663C69.0397 81.3456 52.9469 78.6885 52.9322 78.686C56.5847 81.431 63.9863 84.7753 75.2866 79.7872V63.8663H68.5178Z" fill="#B3B3C5"/>
<path d="M82.8684 37.0444C82.8684 37.0444 84.7866 47.7694 76.7037 51.7728V70.9719C76.7037 73.6991 77.8572 76.3569 80.01 78.0309C81.2775 79.0166 82.9581 79.8712 85.1331 80.1772C86.0762 80.31 86.9506 79.6716 87.1922 78.7506C87.9762 75.7575 90.6825 69.3381 99.6181 67.8634C102.606 67.3703 105.7 67.57 108.514 68.6894C112.056 70.0984 116.226 73.2522 116.4 80.2972C116.4 91.7975 107.077 101.12 95.5775 101.12H91.91C80.41 101.12 71.0875 91.7975 71.0875 80.2972V37.0444H82.8684Z" fill="#E6E6F8"/>
<path d="M69.6434 67.0094H71.0872V55.0912H69.6434C66.3525 55.0912 63.6844 57.7594 63.6844 61.0503C63.6844 64.3412 66.3525 67.0094 69.6434 67.0094ZM105.51 62.6041H101.998C101.445 62.6041 100.915 62.3844 100.524 61.9934C100.133 61.6024 99.9134 61.072 99.9134 60.5191C99.9134 60.2452 99.9673 59.9741 100.072 59.7211C100.177 59.4681 100.33 59.2383 100.524 59.0446C100.718 58.851 100.948 58.6975 101.2 58.5927C101.453 58.4879 101.725 58.434 101.998 58.4341H105.51C106.063 58.4341 106.593 58.6537 106.984 59.0447C107.375 59.4358 107.595 59.9661 107.595 60.5191C107.595 61.072 107.375 61.6024 106.984 61.9934C106.593 62.3844 106.063 62.6041 105.51 62.6041Z" fill="#E8897B"/>
<path d="M116.4 80.2972C116.225 73.2519 112.056 70.0985 108.514 68.6894C107.317 68.2131 106.068 67.9128 104.799 67.7519C104.838 67.8331 113.489 85.8638 105.377 98.6672C111.935 95.1619 116.4 88.2531 116.4 80.2972Z" fill="#B3B3C5"/>
<path d="M77.9981 23.4162C74.8991 21.9162 73.6866 18.1306 74.9934 14.9453C75.2567 14.3029 75.5886 13.6908 75.9834 13.1197C76.4109 12.5022 76.4225 11.6912 75.9853 11.0806C74.7447 9.34811 73.6091 7.36655 72.8319 5.9203C72.3819 5.0828 71.1806 5.0828 70.7306 5.9203C69.9531 7.36655 68.8178 9.34811 67.5769 11.0806C67.1397 11.6912 67.1516 12.5022 67.5791 13.1197C67.9739 13.6908 68.3058 14.3029 68.5691 14.9453C69.8756 18.1306 68.6634 21.9162 65.5644 23.4162C64.4481 23.9565 62.1328 24.43 60.2572 24.43L61.1247 30.9497H82.4381L83.4612 23.9628C81.585 23.9628 79.1144 23.9562 77.9981 23.4162Z" fill="#AD6D2A"/>
<path d="M58.5691 42.3334H75.2866V37.0444H64.6028C64.6028 37.0444 60.78 38.4809 58.5691 42.3334Z" fill="#B3B3C5"/>
<path d="M82.8931 42.3334C83.2797 39.4131 82.8684 37.0444 82.8684 37.0444H71.0872V42.3334H82.8931Z" fill="#B3B3C5"/>
<path d="M108.522 23.4162C105.423 21.9162 104.21 18.1306 105.517 14.9453C105.78 14.3028 106.112 13.6907 106.507 13.1197C106.934 12.5022 106.946 11.6912 106.509 11.0806C105.268 9.34811 104.133 7.36655 103.355 5.9203C102.906 5.0828 101.704 5.0828 101.254 5.9203C100.477 7.36655 99.3413 9.34811 98.1003 11.0806C97.6631 11.6912 97.6753 12.5022 98.1028 13.1197C98.4975 13.6908 98.8293 14.3029 99.0925 14.9453C100.399 18.1306 99.1869 21.9162 96.0878 23.4162C94.9716 23.9565 92.6566 24.43 90.7809 24.43L91.6481 30.9497H112.962L113.985 23.9628C112.109 23.9628 109.638 23.9562 108.522 23.4162Z" fill="#AD6D2A"/>
<path d="M111.647 10.7363C111.338 11.1647 111.17 11.6785 111.166 12.2066C111.162 12.7348 111.322 13.2511 111.624 13.6844C112.218 14.5435 112.712 15.4671 113.098 16.4375C114.882 20.9178 112.995 26.4356 108.631 28.4875C107.048 29.2322 105.008 29.7247 102.383 29.7247C99.6962 29.7247 97.6231 29.2088 96.0244 28.435C91.5863 26.2866 89.85 20.8653 91.7212 16.3031C92.0984 15.3831 92.5736 14.5065 93.1387 13.6884C93.7575 12.7944 93.755 11.6263 93.1225 10.7419C91.0978 7.9097 89.2706 4.61939 88.1781 2.53532C87.7291 1.67939 86.5125 1.67939 86.0634 2.53532C84.9719 4.6172 83.1469 7.90345 81.1244 10.7338C80.8154 11.1636 80.6474 11.6788 80.6436 12.2082C80.6399 12.7377 80.8005 13.2552 81.1034 13.6894C81.6938 14.5443 82.1861 15.463 82.5709 16.4281C84.3891 20.9872 82.6244 26.31 78.2028 28.4416C76.6062 29.2116 74.5372 29.7244 71.8587 29.7244C69.255 29.7244 67.2278 29.2397 65.6497 28.5056C61.2584 26.4622 59.3522 20.9366 61.1431 16.4366C61.5291 15.4663 62.0238 14.5429 62.6178 13.6841C62.9197 13.2508 63.0796 12.7344 63.0755 12.2064C63.0714 11.6783 62.9035 11.1645 62.595 10.7359C61.1837 8.76189 59.8691 6.56595 58.8325 4.71157C58.2325 3.63814 56.5972 4.07314 56.5972 5.30251V36.1872C56.5972 37.8644 57.9569 39.2241 59.6341 39.2241H114.607C116.285 39.2241 117.644 37.8644 117.644 36.1872V5.30314C117.644 4.07345 116.009 3.63876 115.409 4.71189C114.372 6.56657 113.057 8.76251 111.647 10.7363Z" fill="#FFCA95"/>
<path d="M114.607 39.2247C116.285 39.2247 117.644 37.865 117.644 36.1878V5.30314C117.644 4.07345 116.009 3.63907 115.409 4.7122C114.372 6.56689 113.057 8.76251 111.647 10.7366C111.338 11.165 111.17 11.6788 111.166 12.207C111.162 12.7351 111.322 13.2514 111.624 13.6847C112.218 14.5438 112.712 15.4674 113.098 16.4378C114.882 20.9181 112.995 26.4359 108.631 28.4878C107.048 29.2325 105.008 29.725 102.383 29.725C99.6962 29.725 97.6231 29.2091 96.0244 28.4353C91.5863 26.2869 89.85 20.8656 91.7212 16.3034C92.0984 15.3835 92.5736 14.5068 93.1388 13.6888C93.7575 12.7947 93.755 11.6266 93.1225 10.7419C91.0978 7.9097 89.2706 4.61939 88.1778 2.53564C88.0782 2.34134 87.9266 2.17847 87.74 2.0651C87.5534 1.95174 87.339 1.89232 87.1206 1.89345V34.7081C87.1206 34.7081 86.965 39.2244 92.26 39.2244H114.607V39.2247Z" fill="#FBB04D"/>
<path d="M95.4162 127.714C99.0591 127.714 102.012 124.368 102.012 120.241C102.012 116.114 99.0591 112.768 95.4162 112.768C91.7734 112.768 88.8203 116.114 88.8203 120.241C88.8203 124.368 91.7734 127.714 95.4162 127.714Z" fill="#FBB04D"/>
<path d="M92.8637 121.498C94.002 121.698 95.1082 120.814 95.3345 119.524C95.5609 118.234 94.8216 117.026 93.6833 116.826C92.545 116.627 91.4388 117.511 91.2125 118.801C90.9862 120.091 91.7255 121.298 92.8637 121.498Z" fill="#FFCA95"/>
<defs>
<linearGradient id="paint0_linear_20_87" x1="78.8044" y1="111.602" x2="100.379" y2="-56.1825" gradientUnits="userSpaceOnUse">
<stop stop-color="#CC5697"/>
<stop offset="1" stop-color="#8E3979"/>
</linearGradient>
<linearGradient id="paint1_linear_20_87" x1="93.2794" y1="74.94" x2="93.2794" y2="6.05124" gradientUnits="userSpaceOnUse">
<stop offset="0.005" stop-color="#FFC3B0"/>
<stop offset="1" stop-color="#E8897B"/>
</linearGradient>
</defs>
</svg>
