<svg width="160" height="160" viewBox="0 0 160 160" fill="none" xmlns="http://www.w3.org/2000/svg">
<path d="M49.7647 43.9888L46.3722 43.8697C46.3722 43.8697 43.0009 42.796 45.6866 38.6466C48.3722 34.4975 53.2956 33.875 55.7822 27.9106C55.7819 27.9103 56.3291 39.58 49.7647 43.9888V43.9888Z" fill="#BC6662"/>
<path d="M64.8166 24.0435C63.8541 22.4632 61.9094 21.8919 60.306 22.7341C58.136 23.8738 55.3063 26.1463 53.9722 30.536C53.7141 31.385 53.5875 32.2732 53.4991 33.1591C53.2881 35.2735 52.1775 40.6794 46.3719 43.8697C46.3719 43.8697 53.8631 49.2972 59.6981 43.8697C59.6981 43.8697 67.7413 36.6328 73.2609 40.3335C73.2613 40.3332 68.0563 29.3625 64.8166 24.0435V24.0435ZM80.2497 39.3025C80.2497 39.3025 80.1591 33.6497 85.3897 27.9107C85.3897 27.9107 91.2391 21.9925 91.6103 15.5913C91.8138 12.085 89.2631 9.01878 85.9244 8.55659C82.9272 8.14159 78.6156 8.76628 73.5675 13.0972L71.6325 14.8622C70.8269 15.5972 70.64 16.8253 71.195 17.7797C73.5797 21.8807 79.5822 32.7472 80.2497 39.3025Z" fill="#DB8B84"/>
<path d="M63.6025 28.324C63.6025 28.324 65.7306 30.9134 70.5478 28.4837C72.0706 27.7156 73.3678 26.4687 74.0366 24.8481C74.5966 23.4915 74.8234 21.7125 73.7984 19.7272C73.7984 19.7269 80.1981 26.4009 81.2825 41.4459H73.5813C73.5813 41.4459 66.0972 37.2606 63.6025 28.324V28.324Z" fill="#F7BBB6"/>
<path d="M68.5631 29.7256C67.2106 29.9803 64.5347 29.7737 63.6022 28.324C62.2231 26.1806 62.9928 23.9165 65.7034 21.6656C65.7034 21.6656 71.8144 16.9487 73.8947 19.8334C74.395 20.5275 74.9347 22.5047 74.68 24.124C74.3337 26.3303 72.8337 28.9212 68.5631 29.7256V29.7256Z" fill="#BC6662"/>
<path d="M74.0419 48.399C74.0419 48.399 70.7762 50.3987 69.5219 54.7859C69.5219 54.7859 63.5178 74.7734 47.8756 86.4218C46.1678 87.6931 44.5441 89.0668 43.1394 90.6668C38.3222 96.1531 29.6903 109.701 36.6494 126.645C36.6494 126.645 43.9409 146.581 74.9928 151.034C86.4472 152.677 98.2216 150.427 107.893 144.073C115.198 139.275 122.359 131.665 125.174 119.707C126.123 115.674 126.24 111.503 125.37 107.452C124.195 101.98 121.142 94.3031 113.333 87.6647C108.327 83.4087 103.611 78.8259 99.5278 73.6781C93.5053 66.0853 85.9925 55.6443 82.9906 47.4465L74.0419 48.399V48.399Z" fill="url(#paint0_linear_20_72)"/>
<path d="M113.333 87.6647C108.327 83.4088 103.612 78.8259 99.5284 73.6781C98.5352 72.4256 97.5557 71.1622 96.5903 69.8881C98.4456 77.075 99.9365 85.4813 100.042 94.19C100.372 121.579 78.5456 142.888 53.2297 143.913C58.6875 147.031 65.7897 149.714 74.9931 151.034C86.4475 152.677 98.2216 150.427 107.894 144.073C115.198 139.275 122.36 131.665 125.174 119.707C126.123 115.674 126.241 111.503 125.371 107.452C124.196 101.98 121.142 94.3034 113.333 87.6647V87.6647ZM76.7234 41.9059C76.7234 41.9059 74.4765 51.4241 72.6634 56.0003C72.49 56.4378 72.4053 56.9066 72.4581 57.3772C72.4615 57.4075 72.4653 57.4384 72.4697 57.47C72.8781 60.5413 77.2119 60.4056 77.5362 57.3194C77.6109 56.6069 77.6387 55.7569 77.5856 54.7488C77.5853 54.7484 76.1528 46.7963 76.7234 41.9059Z" fill="#DB8B84"/>
<path d="M78.7347 47.35C78.7347 47.35 84.7059 62.1409 77.8988 78.8287C77.4041 80.0415 78.1675 81.3993 79.4628 81.5965C79.9423 81.6713 80.4327 81.571 80.8444 81.314C81.2561 81.057 81.5616 80.6605 81.705 80.1968C83.2353 75.2515 87.16 60.1706 82.6538 47.614L78.7347 47.35V47.35Z" fill="#A0376F"/>
<path d="M69.5219 42.4063C69.5219 43.0019 69.7397 43.5769 70.1344 44.0231C70.529 44.4692 71.0732 44.7555 71.6644 44.8281L81.9484 46.0913C83.4031 46.2697 84.6863 45.1347 84.6863 43.6694V43.5078C84.6862 42.9057 84.4635 42.3248 84.061 41.8769C83.6586 41.429 83.1047 41.1457 82.5059 41.0816L72.2216 39.9797C70.7797 39.8253 69.5219 40.956 69.5219 42.4063V42.4063ZM78.8647 49.1213C78.8647 49.1213 90.8391 63.5253 83.8206 102.542C83.5853 103.85 84.4319 105.108 85.7369 105.359C86.0478 105.42 86.3676 105.418 86.678 105.355C86.9884 105.292 87.2833 105.168 87.5458 104.991C87.8083 104.814 88.0333 104.586 88.2079 104.322C88.3825 104.058 88.5034 103.762 88.5634 103.451C90.1966 95.0075 94.7244 65.8575 83.4681 48.3991L78.8647 49.1213V49.1213Z" fill="#C14C82"/>
<path d="M69.5219 46.8778V47.1309C69.5219 48.3131 70.4281 49.2981 71.6063 49.3962L82.2241 50.2809C83.5494 50.3916 84.6863 49.3456 84.6863 48.0156C84.6863 47.4546 84.4789 46.9134 84.1039 46.4962C83.7289 46.079 83.2128 45.8152 82.655 45.7556L72.0372 44.6178C70.6938 44.4734 69.5219 45.5266 69.5219 46.8778V46.8778Z" fill="#A0376F"/>
<defs>
<linearGradient id="paint0_linear_20_72" x1="75.6134" y1="77.3603" x2="94.6028" y2="234.197" gradientUnits="userSpaceOnUse">
<stop offset="0.01" stop-color="#F7BBB6"/>
<stop offset="1" stop-color="#DB8B84"/>
</linearGradient>
</defs>
</svg>
