<svg width="160" height="160" viewBox="0 0 160 160" fill="none" xmlns="http://www.w3.org/2000/svg">
<path d="M90.3312 7.61346C91.4451 7.61346 92.3481 6.71048 92.3481 5.59659C92.3481 4.4827 91.4451 3.57971 90.3312 3.57971C89.2174 3.57971 88.3144 4.4827 88.3144 5.59659C88.3144 6.71048 89.2174 7.61346 90.3312 7.61346Z" fill="#C7DAFF"/>
<path d="M110.324 39.1119C110.324 39.1119 114.098 40.0544 115.48 44.6191C116.445 47.8091 115.802 51.3597 113.37 53.6397C112.301 54.6425 110.827 55.4719 108.822 55.6506L110.324 39.1119V39.1119Z" fill="#A06260"/>
<path d="M63.2966 84.5663C63.2966 84.5663 45.2122 88.2135 30.3466 106.586C28.7941 108.505 29.1263 111.345 31.12 112.8C34.9291 115.58 41.0341 121.78 46.94 135.203C46.94 135.203 54.4675 154.473 81.9856 156.605C86.8472 156.981 91.7606 156.219 96.185 154.168C104.788 150.179 117.783 140.574 119.491 118.624C119.859 113.884 119.114 109.098 117.068 104.807C112.407 95.0328 99.4275 81.631 63.2966 84.5663V84.5663Z" fill="#F9C8B2"/>
<path d="M119.491 118.624C119.859 113.884 119.113 109.098 117.067 104.807C112.949 96.1694 102.321 84.7072 74.9731 84.1819L72.6297 89.9606L69.6687 103.29C69.6687 103.29 74.4759 120.426 95.6431 121.933C95.6431 121.933 108.288 123.273 101.072 151.485C109.03 146.394 118.085 136.694 119.491 118.624V118.624Z" fill="#DDA288"/>
<path d="M89.7209 141.232C91.584 141.232 93.0944 139.722 93.0944 137.859C93.0944 135.996 91.584 134.485 89.7209 134.485C87.8578 134.485 86.3475 135.996 86.3475 137.859C86.3475 139.722 87.8578 141.232 89.7209 141.232Z" fill="#D39671"/>
<path d="M64.9994 36.4644C64.9994 36.4644 49.6194 46.6975 43.4628 60.5922C41.3434 65.3753 41.1887 70.8837 43.4847 75.5847C45.7866 80.2978 50.7397 85.3856 61.3441 86.8853L64.9994 36.4644Z" fill="#773E41"/>
<path d="M107.233 67.6522H109.074C112.388 67.6522 115.075 64.9656 115.075 61.6513C115.075 58.3372 112.388 55.6503 109.074 55.6503H107.233V67.6522Z" fill="#C66760"/>
<path d="M66.0978 32.445V19.9207C50.7984 19.6666 45.9897 9.32347 44.5206 3.92503C44.2928 3.08784 43.1091 3.09878 42.8853 3.93722C40.6606 12.2678 37.6172 33.7938 66.0978 32.445Z" fill="#EEF6FF"/>
<path d="M108.822 30.9969V19.879C122.403 19.6534 126.672 10.4719 127.976 5.67967C128.178 4.93654 129.229 4.94623 129.427 5.69029C131.402 13.0859 134.104 32.194 108.822 30.9969V30.9969Z" fill="#819FEA"/>
<path d="M66.0978 32.445V19.9206C63.6631 19.8803 61.5216 19.5619 59.5894 19.0712C58.4209 22.5262 55.3728 26.885 47.4853 27.97C51.2081 30.9944 57.0628 32.8728 66.0978 32.445V32.445Z" fill="#C7DAFF"/>
<path d="M111.153 39.1119L110.324 82.815H59.7063L60.5566 39.5219L111.153 39.1119Z" fill="url(#paint0_linear_20_38)"/>
<path d="M37.0828 100.308C40.8066 100.657 45.8831 101.705 50.5031 104.592C56.6831 108.454 63.57 111.023 70.8297 111.659C83.9278 112.806 103.102 112.411 117.043 103.257C118.616 102.224 119.007 100.084 117.934 98.5391C114.023 92.9094 101.967 81.0525 69.735 80.9163C69.735 80.9163 49.9947 81.9284 35.5694 95.8913C33.9834 97.4266 34.8856 100.101 37.0828 100.308V100.308Z" fill="#BC7D5C"/>
<path d="M60.0056 67.6522H58.1647C54.8506 67.6522 52.1638 64.9656 52.1638 61.6513C52.1638 58.3372 54.8503 55.6503 58.1647 55.6503H60.0056V67.6522Z" fill="#E8897B"/>
<path d="M60.1744 39.1119L59.6409 88.8938C59.4444 107.23 74.2544 122.199 92.5916 122.199C102.385 122.199 110.323 114.261 110.323 104.468V73.0888L81.3913 73.2372L73.3072 77.7188C73.3072 77.7188 62.4003 73.5338 62.4003 56.6194V39.1116H60.1744V39.1119Z" fill="url(#paint1_linear_20_38)"/>
<path d="M100.66 49.1303V82.815H110.324L111.153 39.1119L86.6081 39.3109C88.8166 39.5697 92.3516 40.1369 95.3331 41.3144C98.5447 42.5822 100.66 45.6775 100.66 49.1303V49.1303Z" fill="#E8897B"/>
<path d="M100.6 86.8853V102.294C100.6 106.638 99.7469 110.964 97.8894 114.89C96.7019 117.4 95.0013 120.019 92.6131 122.199C102.396 122.187 110.324 114.254 110.324 104.468V73.0888L105.777 73.1122L90.9959 75.0244C90.9963 75.0244 100.111 75.2794 100.6 86.8853V86.8853ZM60.0056 59.2575C60.0056 59.2575 62.0638 51.7069 69.3116 49.4825C73.5484 48.1822 76.9113 44.5197 76.4797 39.525H60.1747L60.0056 59.2575V59.2575Z" fill="#773E41"/>
<path d="M86.9103 53.4534C88.2779 53.4534 89.3865 52.3448 89.3865 50.9772C89.3865 49.6096 88.2779 48.5009 86.9103 48.5009C85.5427 48.5009 84.4341 49.6096 84.4341 50.9772C84.4341 52.3448 85.5427 53.4534 86.9103 53.4534Z" fill="#333345"/>
<path d="M105.595 53.4534C106.963 53.4534 108.071 52.3448 108.071 50.9772C108.071 49.6096 106.963 48.5009 105.595 48.5009C104.227 48.5009 103.119 49.6096 103.119 50.9772C103.119 52.3448 104.227 53.4534 105.595 53.4534Z" fill="#333345"/>
<path d="M116.597 74.6147C114.672 74.0378 112.381 72.78 110.86 70.06C109.023 66.7756 105.833 64.5916 102.295 63.8609C100.288 63.4463 90.9994 63.4463 88.9922 63.8609C85.4541 64.5919 82.2634 66.7759 80.4269 70.06C78.9056 72.78 76.6153 74.0378 74.6906 74.6147C72.9784 75.1278 72.5763 77.5288 73.9997 78.6591C76.895 80.9584 80.5216 81.1063 83.1384 80.7963C84.9191 80.5853 86.575 79.6419 87.6481 78.1225C90.7169 73.7788 100.571 73.7788 103.639 78.1225C104.713 79.6419 106.368 80.5853 108.149 80.7963C110.766 81.1059 114.393 80.9584 117.288 78.6591C118.711 77.5284 118.309 75.1275 116.597 74.6147V74.6147Z" fill="#BC8285"/>
<path d="M84.4666 31.4628V8.37935C84.4666 8.37935 63.0528 7.89467 60.7937 30.5819L84.4666 31.4628Z" fill="#EEF6FF"/>
<path d="M96.9656 8.37842C96.9656 8.37842 115.703 12.21 114.131 30.1856H96.9656V8.37842ZM64.9994 30.7381L84.4666 31.4625V14.5815C82.9778 20.5375 78.3972 28.2984 64.9994 30.7381Z" fill="#C7DAFF"/>
<path d="M96.9656 30.5819H83.6969V7.82561C83.6969 7.5329 83.7545 7.24306 83.8666 6.97264C83.9786 6.70221 84.1428 6.4565 84.3498 6.24954C84.5568 6.04258 84.8025 5.87841 85.0729 5.76643C85.3434 5.65444 85.6332 5.59682 85.9259 5.59686H94.7369C95.328 5.59686 95.8949 5.83168 96.3128 6.24965C96.7308 6.66762 96.9656 7.23451 96.9656 7.82561V30.5819Z" fill="#EEF6FF"/>
<path d="M114.086 40.6881H61.3784C60.5966 40.6881 59.8469 40.3775 59.294 39.8247C58.7412 39.2719 58.4306 38.5221 58.4306 37.7403V32.2659C58.4306 30.6381 59.7506 29.3181 61.3784 29.3181H114.086C114.868 29.3181 115.618 29.6287 116.171 30.1815C116.723 30.7343 117.034 31.4841 117.034 32.2659V37.7403C117.034 38.5221 116.723 39.2719 116.171 39.8247C115.618 40.3775 114.868 40.6881 114.086 40.6881V40.6881Z" fill="#C7DAFF"/>
<path d="M117.034 32.2662C117.034 30.6384 115.714 29.3184 114.086 29.3184H101.839C101.435 32.1781 98.8813 39.8659 88.0481 40.6881H114.086C114.868 40.6881 115.618 40.3775 116.171 39.8247C116.723 39.2719 117.034 38.5221 117.034 37.7403V32.2662V32.2662Z" fill="#819FEA"/>
<path d="M116.597 74.6147C114.672 74.0378 112.381 72.78 110.86 70.06C109.752 68.0791 108.147 66.5069 106.274 65.4041C106.381 71.3944 102.519 74.06 98.7884 75.2344C100.824 75.7156 102.613 76.6706 103.639 78.1225C104.713 79.6419 106.368 80.5853 108.149 80.7962C110.766 81.1059 114.392 80.9584 117.288 78.6591C118.711 77.5284 118.309 75.1275 116.597 74.6147V74.6147Z" fill="#9E6369"/>
<path d="M96.4306 61.6513C97.0916 61.6513 97.6275 61.1154 97.6275 60.4544C97.6275 59.7934 97.0916 59.2575 96.4306 59.2575C95.7696 59.2575 95.2337 59.7934 95.2337 60.4544C95.2337 61.1154 95.7696 61.6513 96.4306 61.6513Z" fill="#E8897B"/>
<path d="M90.3312 25.0391C91.4451 25.0391 92.3481 24.1361 92.3481 23.0222C92.3481 21.9083 91.4451 21.0053 90.3312 21.0053C89.2174 21.0053 88.3144 21.9083 88.3144 23.0222C88.3144 24.1361 89.2174 25.0391 90.3312 25.0391Z" fill="#C7DAFF"/>
<path d="M90.3312 15.806C91.4451 15.806 92.3481 14.903 92.3481 13.7891C92.3481 12.6752 91.4451 11.7722 90.3312 11.7722C89.2174 11.7722 88.3144 12.6752 88.3144 13.7891C88.3144 14.903 89.2174 15.806 90.3312 15.806Z" fill="#C7DAFF"/>
<defs>
<linearGradient id="paint0_linear_20_38" x1="85.43" y1="45.3675" x2="85.43" y2="102.185" gradientUnits="userSpaceOnUse">
<stop offset="0.005" stop-color="#FFC3B0"/>
<stop offset="1" stop-color="#E8897B"/>
</linearGradient>
<linearGradient id="paint1_linear_20_38" x1="84.9813" y1="106.925" x2="84.9813" y2="43.4219" gradientUnits="userSpaceOnUse">
<stop stop-color="#A06260"/>
<stop offset="1" stop-color="#82494C"/>
</linearGradient>
</defs>
</svg>
