<svg width="50" height="45" viewBox="0 0 50 45" fill="none" xmlns="http://www.w3.org/2000/svg">
<path d="M28.6518 34.7484C28.6518 32.6923 29.1633 30.7181 30.1248 28.9587C28.7643 28.1915 27.7619 27.6903 27.3425 27.4857C27.2095 27.4243 27.1379 27.2913 27.1379 27.1481V19.0671C28.1506 18.392 28.8257 17.2361 28.8257 15.9268V7.5491C28.8257 3.38584 25.4501 0 21.2766 0H20.3764H19.4763C15.313 0 11.9272 3.37561 11.9272 7.5491V15.9268C11.9272 17.2361 12.6023 18.392 13.615 19.0671V27.1481C13.615 27.2913 13.5331 27.4243 13.4104 27.4857C12.2545 28.0483 6.65917 30.8715 1.473 35.1371C0.531915 35.9043 0 37.0602 0 38.2774V44.016H20.3662H32.9787C32.7025 43.7909 32.4468 43.5454 32.1911 43.2897C29.91 41.0086 28.6518 37.9705 28.6518 34.7484Z" fill="#3077C6"/>
<path d="M40.7324 25.4807C35.6179 25.4807 31.4648 29.6337 31.4648 34.7482C31.4648 39.8628 35.6179 44.0158 40.7324 44.0158C45.847 44.0158 50 39.8628 50 34.7482C50 29.6337 45.8572 25.4807 40.7324 25.4807ZM46.1539 36.0985H42.0827V40.1697H39.3822V36.0985H35.311V33.398H39.3822V29.3268H42.0827V33.398H46.1539V36.0985Z" fill="#3077C6"/>
</svg>
